<svg xmlns="http://www.w3.org/2000/svg" width="682.667" height="682.667" fill="currentColor" version="1.0" viewBox="0 0 512 512"><path d="M118.1 2.8c-1.8 1.7-3.1 4.1-3.1 5.5 0 1.4 3.4 7.1 8.4 14 4.6 6.5 10.9 15.9 13.9 21 6.7 11.3 18 33.7 17.3 34.4-.3.3-4.4 1.8-9.3 3.5-4.8 1.6-11.6 4.5-15 6.4-6.3 3.5-19.2 13.3-22.7 17.2-3.3 3.8-6.9 3.7-15.3-.2-4.2-2-9.7-5.2-12.3-7.1-5.9-4.3-10-4.6-13.7-.9-2.3 2.4-2.5 3-1.9 8.2.4 3.1 2 9.7 3.7 14.6 6.3 18.9 16.5 32.3 29.5 38.7l6.9 3.4 14.5-.1c17.8-.1 30.1-2 55.9-8.6 16.3-4.2 21.2-5.1 29.1-5.2 10.3-.1 12.9.7 19.3 6.4l3.4 2.9-.9 7.3c-2.5 21.7-12 41.7-28.4 59.7-4.8 5.3-5.9 6.1-6.8 4.8-10.7-15.2-12.9-16.8-19.1-14.3-3.5 1.5-3.6 1.8-6.3 13.7-.7 2.7-4 8.8-8.5 15.6-14.6 21.9-21.6 38.6-21.7 51.5 0 2.6-1.2 8.2-2.6 12.4-3.4 10.3-6.3 23.7-7 33.2-.4 4.2-1 8.3-1.4 9.1-.4.7-4.5 2.6-9.1 4-26.9 8.7-43.5 26.4-44.7 47.4-.8 13.1.4 16.1 15.4 40.4 7.4 12 14.6 22.9 16 24.3 2.3 2.4 3 2.5 17.2 2.8 12 .3 16.6 0 25.1-1.8l10.4-2.1 7.7 7.7c22.5 22.2 53.6 34.9 94.7 38.5 16.2 1.4 41.9.7 57.3-1.6 67-10.1 107.6-46.9 124.5-113 5.3-20.6 6.8-33.4 6.2-51.5-.6-18.4-2.8-28.6-8.8-40.7l-4-8.1 1.2-10.4c1.4-11.9.7-31-1.5-44.3-2.4-13.9-2-26.5 1.1-41.3 5.7-27.2 2.7-38.4-13.5-48.9l-5.3-3.4.6-4.7c2.4-17.4 5.9-29.9 14.3-50.7 8.7-21.9 9.6-25.6 9.7-41 0-13.9 0-14.1-4.3-26.6-2.3-7-5.6-14.5-7.3-16.8-3.3-4.7-9.5-8-14.7-8.1-4.7 0-12.9 3.1-20.3 7.8l-6.4 4.1-3.3-2.1C370.6 2.7 360.8 0 346 0c-21 .1-34.6 3.3-42.3 10-5.5 4.9-8.3 10.7-9.8 20.2-1.4 8.4-3.5 13.2-7.6 16.9-2.7 2.5-3.5 2.7-16.3 3.2-7.4.4-16 1.2-19 2l-5.5 1.3-7.4-6.8c-15.7-14.5-39.5-27.7-65.6-36.1-14.2-4.6-34.1-9.2-45.3-10.3-5.8-.6-6.2-.5-9.1 2.4zm241.3 15.7c7.6 1.6 14.4 5.1 17.5 9.2 1.2 1.4 2 2.8 1.8 2.9-.2.2-2.8-.6-5.8-1.8-4.5-1.8-7.5-2.2-17.4-2.3-11.6 0-12.3.1-18.6 3.2-8.6 4.3-15.9 12-20.6 21.9-3.3 7-3.7 8.6-4.1 18.3-.5 11.8 1.2 18.6 7 29 2.7 4.9 2.9 5.9 2.3 11-.4 3.1-.9 5.9-1.1 6.3-.3.4-3.7-1.8-7.7-4.9-4.2-3.2-13.4-8.6-21.9-12.7-16.8-8.1-16.1-6.9-10.4-18.6 2.3-4.9 5.5-8.9 13.2-16.5 11.7-11.5 14.9-16.9 16.5-27.9 1.8-12.3 5.2-15.7 17.7-17.5 9.2-1.4 24.2-1.2 31.6.4zm55.2 2.2c.9 2.1 3 8 4.6 13.2 5.1 17.1 3.9 26.2-7.2 54.6-6.9 17.6-10.4 29.2-12.6 41.9-.9 5-1.8 9.3-2 9.5-1.1 1.3-23.4-16.7-23.4-18.8 0-.3 2.7-3.5 6-6.9 7.2-7.6 12.2-15.9 15.8-26.1 2.5-7.3 2.6-8.4 2.7-30.1 0-16.4-.4-23.8-1.4-27.3-1.3-4.6-1.3-4.9.9-6.5 3.6-2.7 12.1-7.2 13.5-7.2.7 0 2.1 1.7 3.1 3.7zM153.9 23c26.8 6.8 54.2 20.2 70.4 34.3l3.9 3.4-5.9 5.6c-5.3 5-11.3 14.5-11.3 17.6 0 1.5-.5 1.4-4.9-.9-5.8-2.9-17.1-5.8-25.8-6.5l-7.8-.7-2.9-7.2c-4-10.1-14.4-29.9-20.5-39.1-2.8-4.3-5.1-7.9-5.1-8.1 0-.7 2.3-.4 9.9 1.6zm212.2 21.6c6.5 1.9 12.9 8 14.7 14.1 4 13.3-1.9 32.3-13.7 44.1-6.7 6.8-11 8.7-15.6 7.2-4.9-1.6-13.3-11.3-18-20.6-3.8-7.6-4-8.3-4-17.4 0-8.4.3-10.1 2.7-14.5 3.1-5.9 8-10.8 12.8-12.9 4.6-2 14.3-2 21.1 0zM267 67.4c0 .2-1.3 3.3-3 6.8-1.6 3.4-3 7-3 7.9 0 2.6-1 2.8-5.2 1.3-5.2-1.8-9.9-.1-11.8 4.5-1.1 2.8-1.1 3.7.2 6.5 1.4 2.8 3 3.8 12.4 7.6 15.9 6.3 34.1 15.1 41.5 20 9.1 6.2 20.6 18 27.7 28.6 3.3 5 6.8 9.4 7.7 9.8 3.2 1.2 6.4.6 9.1-1.8 4.6-3.9 3.9-7.8-3.2-18.2l-6-8.9 1.7-4.5c.9-2.5 2.1-4.5 2.5-4.4.5 0 2.9 1 5.4 2.1 2.5 1.2 6.7 2.5 9.4 2.9 4.5.6 5.6 1.4 14 9.9 10.5 10.6 20.6 17.5 33.7 23.1 11.1 4.7 17.4 10 18.4 15.6.5 2.6-.3 8.7-2.4 19.5-3.7 18.5-4.1 33.4-1.4 47.8 2.1 11.4 2.3 35.7.4 48.2l-1.4 9.2 3.7 5.4c7.8 11.4 11.2 27.4 10.3 49-1.3 29.9-11.3 62.7-26.2 85.7-6.7 10.4-24 27.3-34 33.2-21.3 12.7-46.8 19.2-80.5 20.5-41.6 1.6-77.5-7-101.4-24.2-6.4-4.5-14.6-12.1-14.6-13.3 0-.4 1.6-1.8 3.5-3.1 4.7-3.2 12.2-13.3 18.7-25.1 2.8-5.2 7.1-12.2 9.4-15.6 4.3-6.1 18.7-20.4 20.6-20.4.5 0 3.5 2 6.6 4.4 12.3 9.5 20.9 12.1 39.2 11.9 23.4-.2 37.7-5.1 49.6-16.8 10.1-9.9 15-22.3 19.9-50.1 5.1-28.6 8.7-37.1 18.5-43.9 5.8-4 6.9-9.8 2.7-14.3-2.9-3.2-7.4-2.8-13.2 1-9.5 6.3-17.5 19.8-21.2 36-1.5 6.5-1.8 7-2.4 4.3-2-8.9.2-21.9 5.5-33.2 4.4-9.1 8.4-15 15.8-23.3 12.1-13.4 14.8-24.7 8.8-36.6-1.6-3.2-6.8-10.2-11.5-15.4-10.6-11.8-17.7-22.2-24.8-36.8-11.1-22.4-20.4-30.6-62-54.2-21.7-12.3-25.9-15.6-27.6-21.5-4.6-16.6 5.4-30.4 25.1-35 3.5-.7 7.9-1.6 9.8-1.8 1.9-.2 3.8-.5 4.3-.5.4-.1.7 0 .7.2zm-84.1 26.7c12.2 1.9 27.1 9 27.1 12.8 0 3.6 5.9 13.8 10.2 17.6 2.5 2.2 4.8 5.2 5.2 6.7.3 1.6.5 2.8.4 2.8-.2 0-3.2-.9-6.6-2-11.3-3.5-25-2.1-53.2 5.5-21.3 5.8-48.9 8.9-57.5 6.5-5.5-1.5-12.7-7.6-17-14.5-5.3-8.4-5.2-8.6 1-6.4 10.7 3.7 18.5 1.7 28.7-7.7 14.7-13.5 26.7-19.4 43.6-21.4 9.7-1.1 11-1.1 18.1.1zm73.6 52.6c7.3 4.2 11.6 7.4 11.9 8.7.9 3.3.6 19.4-.4 27.6-2.3 17.2-8.7 36.1-17.1 49.7-16.3 26.6-19.7 32.7-24.6 44-4.9 11.5-11.1 30.4-12.8 39.4-.6 3.2-1.2 3.8-4.8 4.9-5.3 1.5-18.6 8.2-24.6 12.3-7.2 4.8-21.4 19.5-26.3 27.2-2.5 3.8-6.2 10.1-8.1 14-2 3.8-4.5 8.3-5.6 9.9l-1.9 2.9-.7-5.8c-1.1-8.5.1-37.7 1.9-47.5.9-4.7 1.6-8.7 1.6-8.9 0-.2 2 1.3 4.3 3.2 5.6 4.5 8.6 5.3 12.6 3.3 3.2-1.7 3.3-2 5.1-12.9 2.4-15 10-28.2 24.2-41.9l9.1-8.8-.2-6.8c-.1-3.7-.6-8.3-1.1-10.2-.9-3.3-.8-3.5 7.8-12.4 24.3-25.1 35.4-50.9 36.9-85.4.3-7.2.8-13.2 1-13.2.3 0 5.6 3 11.8 6.7zm46.3 43.4c7.6 15.5 12.1 22.3 21.9 33.4 14.1 15.7 16.2 20 13.2 25.8-.7 1.2-4 5.3-7.4 9.2-7.3 8.3-11.3 14-15.5 22.3-12.5 24.6-12.6 50.8-.4 71.6l3.5 5.9-2.1 6.1c-2.8 8.6-8.1 16-14.3 20-5 3.3-15.3 7.4-16.2 6.4-.3-.2 0-2 .5-3.9 1.3-4.5 1.3-16.4-.1-21.3-1.6-5.8-30.7-51.5-33.6-52.9-1.8-.8-4.7-.8-11 .2-4.7.6-8.8.9-9.1.6-.9-.9 4.5-17.7 9.4-29.1 5.4-12.8 8.4-18.2 18.7-34.2 15.9-24.9 23.4-46.6 25.3-73.6l.7-10 5.2 5.6c3.5 3.8 7.1 9.4 11.3 17.9zM182.2 254l1.2 5.9-6.5 6.8c-9 9.4-14 16.4-19.3 26.7-4.1 8-4.6 8.6-5.2 6.1-2.2-8.7 4.4-25.3 18.7-46.8l7.2-10.8 1.3 3.1c.8 1.7 1.9 5.8 2.6 9zm71.7 90.6c5 8.1 9 14.8 8.9 14.9-.2.1-3.7 1-7.8 2-24.3 5.8-41.9 15-56 29.5-7.1 7.3-10.6 12.4-23.3 34.4-11.3 19.4-22.4 25.3-49.8 26.3l-13.5.5-7.2-11.4c-3.9-6.3-7.4-12.2-7.7-13-.5-1.1 1.1-1.7 7.7-2.7 26.6-4 43.9-15.2 56.2-36.2 2.6-4.6 6.9-12 9.5-16.3 5.5-9.6 17.2-21.8 25.8-26.9 8.7-5.3 19-9.4 31.8-12.7 16.8-4.4 14.8-5.3 25.4 11.6zm-129.8 31.1c0 3.8.6 11 1.3 16.1l1.2 9.3-3.6 1.6c-5.8 2.5-21 6-28.9 6.7l-7.3.6.4-6.2c.2-3.5 1.3-8.1 2.3-10.3 2.7-5.6 13-15.7 19.5-19 4.8-2.5 12.1-5.2 14.3-5.4.4-.1.7 2.9.8 6.6zm145.6 4.8c-.4 2.4-1.3 6-2.1 8-1.4 3.2-1.9 3.5-5.4 3.5-5 0-15.9-3.4-19.2-5.9l-2.5-2 3.6-1.5c4.2-1.8 21.6-6.5 24.3-6.5 1.6-.1 1.8.4 1.3 4.4z"/><path d="M348.8 173c-3.5 2.7-3.9 9-.8 11.7 1.1 1 2.9 2.6 4 3.5 1.5 1.4 2 3 2 7.1 0 9.3 2.5 15.3 8.9 21.8 6.1 6 10.2 7.9 17.6 7.9 4.7 0 11.2-2.8 14-5.9 2.9-3.3 2.5-8.8-.9-11.7-3.2-2.8-6.7-3-10.6-.7-2.3 1.3-3.4 1.4-5.4.5-4.1-1.8-6-5.9-6.7-14.3-1.2-13.4-6.3-20.6-15.2-21.6-3.3-.4-4.8 0-6.9 1.7zM357.2 335c-4.3 4.1-4.1 8.1.9 14.9 8 11.1 19.7 10.8 26.9-.6 3.8-5.9 3.9-10.5.5-13.8-3.5-3.6-8.6-3.4-11.7.3l-2.3 2.8-2.7-2.8c-3.2-3.5-8.3-3.8-11.6-.8zM382.5 369.5c-3.5 3.4-3.3 8 .6 13.8 5.5 8.4 14 11.2 21.1 7 3.7-2.1 9.8-11.5 9.8-15.1 0-1.3-1.3-3.7-2.9-5.3-3.9-3.9-8.4-3.9-11.9-.1l-2.5 2.7-2.8-2.7c-3.5-3.6-8.1-3.7-11.4-.3zM339.9 386.9c-1.6 1.6-2.9 3.9-2.9 5.1 0 5.6 8 15.3 14 17 4.5 1.3 9.9-.2 13.2-3.7 8-8.5 9.1-16.6 2.7-19.8-4.2-2.2-6.7-1.8-10 1.4-2.7 2.7-3 2.8-4.1 1.2-3.4-4.8-8.8-5.2-12.9-1.2zM239.5 419.1c-5.3 3-5.9 8.3-1.6 15.1 4.1 6.4 8.4 9.2 14.2 9.2 6 0 10.4-3.2 14.3-10.3 3.2-6 2.9-9.9-1.1-13.1-4-3.1-9-2.2-12.1 2.2-1.2 1.7-1.4 1.7-3.5-.7-2.6-2.9-7.3-4-10.2-2.4zM299.5 419c-2.6 1-4 2.8-4.8 6-1.4 5.7 7.7 17.2 14.7 18.5 11 2.1 23.3-14.5 16.7-22.6-2.9-3.6-9.6-3.3-12.7.6-2 2.5-2.4 2.7-3 1.2-.7-1.9-5.4-4.7-7.6-4.6-.7 0-2.2.4-3.3.9zM348.2 429.3c-3.1 3.3-2.9 8.4.6 13.5 4.5 6.7 7.8 8.7 14.4 8.7 5.1 0 6-.3 9.3-3.5 4.5-4.4 7.9-11.3 7.1-14.5-1.7-6.6-9.7-8.7-14.4-3.7l-2.7 2.8-2.3-2.8c-3.1-3.7-8.8-3.9-12-.5zM203.6 446.1c-3.6 2.8-3.5 8 .3 14 3.7 6 8.5 8.9 14.5 8.9 3.9 0 5.2-.6 8.5-3.6 4.9-4.3 8.5-11.4 7.6-14.6-2.2-7-9.6-9.1-14.3-4l-2.7 2.8-2.3-2.8c-2.9-3.4-7.7-3.8-11.6-.7zM272.2 454.5c-2.4 2-3.2 3.5-3.2 5.9 0 4 4.6 11.5 9.1 14.7 4.5 3.1 11.6 3.3 15.6.3s8.3-9.4 8.9-13.5c1.3-8.1-8.9-12.8-14.2-6.5l-2.4 2.7-2.2-2.5c-3.5-4-7.8-4.3-11.6-1.1z"/></svg>